<?xml version="1.0" encoding="UTF-8"?>
<!DOCTYPE svg PUBLIC "-//W3C//DTD SVG 1.1//EN" "http://www.w3.org/Graphics/SVG/1.1/DTD/svg11.dtd">
<!-- Creator: CorelDRAW 2019 (64-Bit) -->
<svg xmlns="http://www.w3.org/2000/svg" xml:space="preserve" width="250px" height="250px" version="1.1" shape-rendering="geometricPrecision" text-rendering="geometricPrecision" image-rendering="optimizeQuality" fill-rule="evenodd" clip-rule="evenodd"
viewBox="0 0 250 250"
 xmlns:xlink="http://www.w3.org/1999/xlink">
 <g id="Layer_x0020_1">
  <metadata id="CorelCorpID_0Corel-Layer"/>
  <circle fill="#35A4B6" cx="124.16" cy="125.06" r="125"/>
  <path fill="#FEFEFE" fill-rule="nonzero" d="M115.39 162.1c-0.06,-2.3 -0.1,-4.04 -0.1,-5.19 0,-6.8 0.96,-12.64 2.89,-17.57 1.41,-3.74 3.68,-7.48 6.83,-11.26 2.3,-2.76 6.47,-6.76 12.44,-12.05 6.01,-5.28 9.89,-9.48 11.69,-12.64 1.81,-3.18 2.69,-6.59 2.69,-10.34 0,-6.76 -2.62,-12.7 -7.88,-17.83 -5.25,-5.12 -11.68,-7.68 -19.3,-7.68 -7.39,0 -13.53,2.33 -18.45,6.96 -4.96,4.66 -8.18,11.92 -9.72,21.8l-17.73 -2.16c1.61,-13.17 6.34,-23.28 14.25,-30.28 7.91,-6.99 18.35,-10.5 31.35,-10.5 13.76,0 24.73,3.74 32.93,11.26 8.18,7.52 12.28,16.61 12.28,27.28 0,6.18 -1.44,11.86 -4.33,17.04 -2.89,5.22 -8.54,11.53 -16.94,18.98 -5.65,4.99 -9.33,8.67 -11.07,11.03 -1.74,2.36 -3.02,5.09 -3.84,8.17 -0.82,3.06 -1.31,8.05 -1.44,14.98l-16.55 0zm-3.15 34.67l0 -19.7 19.7 0 0 19.7 -19.7 0z"/>
 </g>
</svg>
